<?xml version="1.0" encoding="UTF-8" standalone="no"?><!DOCTYPE svg PUBLIC "-//W3C//DTD SVG 1.1//EN" "http://www.w3.org/Graphics/SVG/1.1/DTD/svg11.dtd"><svg width="100%" height="100%" viewBox="0 0 2015 341" version="1.1" xmlns="http://www.w3.org/2000/svg" xmlns:xlink="http://www.w3.org/1999/xlink" xml:space="preserve" xmlns:serif="http://www.serif.com/" style="fill-rule:evenodd;clip-rule:evenodd;stroke-linejoin:round;stroke-miterlimit:2;"><g><g><path d="M282.853,281.518l377.785,-7.406c0,-1.278 0,-2.47 -0.085,-3.747c-0.256,-3.832 -0.594,-7.747 -1.106,-11.578l-420.191,-7.664l417.977,-7.75c-0.851,-4.853 -1.872,-9.62 -3.065,-14.388l-466.85,-8.259l462.253,-8.26c-1.874,-6.3 -4.088,-12.515 -6.556,-18.646c-7.834,-19.838 -10.049,-18.732 -15.584,-33.205c-9.535,-24.608 -10.641,-47.427 -9.959,-63.776c-5.366,-6.556 -12.346,-13.964 -21.202,-21.285c-9.793,-8.005 -20.946,-15.581 -32.695,-20.351c-2.555,-0.936 -5.109,-1.788 -7.408,-3.065c-8.091,-4.171 -19.158,-23.584 -29.12,-16.091c-6.217,4.683 -11.325,14.047 -15.837,20.264c-8.941,12.432 -16.349,27.076 -25.287,38.825c-12.006,15.923 -24.011,31.76 -36.016,47.598c-0.767,1.873 -2.215,4.511 -4.768,7.152c-5.876,5.959 -13.113,6.982 -15.584,7.321c-8.429,1.108 -14.899,-1.788 -17.367,-3.065c-15.752,-2.297 -28.78,-2.98 -37.977,-3.15c-19.241,-0.426 -37.292,0 -56.535,-2.555c-18.817,-2.639 -38.06,-5.28 -56.877,-1.277c-25.543,5.45 -48.789,21.457 -74.161,28.864c-7.662,2.214 -16.006,4.514 -20.946,10.813c-3.491,4.344 -4.938,10.049 -8.429,14.305c-3.832,4.683 -12.773,6.132 -17.029,0.853c-3.15,-3.919 -1.193,-12.943 -0.341,-17.711c3.576,-19.754 17.54,-38.995 30.822,-53.471c2.129,-2.299 4.344,-4.599 6.132,-7.237c1.617,-2.298 2.809,-4.853 4.085,-7.409c4.344,-8.344 9.879,-16.007 15.752,-23.328c2.13,-2.641 12.347,-18.308 15.667,-18.564c1.533,-0.085 2.98,-0.168 4.512,-0.253c7.067,15.665 24.949,23.584 30.228,39.931c3.15,-0.083 6.3,-0.168 9.45,-0.339c23.245,-1.362 45.041,-4.514 65.222,-8.855c10.303,-6.473 19.073,-8.429 24.691,-9.026c17.711,-1.959 34.059,6.044 51.514,6.044c4.001,0 8.088,-0.509 11.409,-2.638c5.618,-3.662 7.238,-10.9 9.45,-16.859l-0.254,0.254c0.68,-2.127 3.83,-10.556 6.982,-18.646l-299.114,-7.577l305.585,-7.834c0.509,-1.106 0.935,-1.701 1.106,-1.701c0.17,0.083 -0,0.68 -0.339,1.701l0.509,-0c1.874,-4.427 3.917,-9.194 6.132,-14.388l-356.588,-8.174l363.568,-8.346c1.873,-4.511 3.917,-9.279 5.961,-14.132c0.339,-0.767 -0,-2.044 -0.597,-3.406l-451.778,0l0,332.49l651.018,0c-0.936,-1.279 -1.703,-2.811 -1.703,-4.684c0.085,-2.042 1.021,-3.659 1.703,-4.597c0.852,-2.044 1.788,-4.683 2.468,-7.747l-327.04,-6.556l328.233,-6.473c-0.085,-2.383 -0.341,-4.512 -0.596,-6.385c2.129,-2.215 3.661,-4.682 4.682,-7.323l-375.912,-7.238Zm143.553,-217.63c-2.044,4.77 -4.344,10.302 -6.556,15.922c1.447,-3.149 3.744,-8.514 6.897,-15.922l-0.341,-0Z" style="fill:#112d3d;fill-rule:nonzero;"/><path d="M624.147,-0c1.617,2.248 3.363,4.4 4.929,6.684c12.523,18.264 16.575,34.057 34.017,48.481c7.949,6.576 11.808,17.737 9.613,27.818c-0.796,3.666 -2.324,7.193 -2.591,10.935c-0.182,2.58 0.245,5.156 0.671,7.704c3.778,22.651 7.372,45.296 10.215,68.088c2.499,20.029 3.525,34.017 9.073,53.585c3.888,13.704 8.644,36.185 21.148,44.569c9.373,6.286 18.747,12.571 28.118,18.857c9.764,6.549 20.323,13.345 32.079,13.266c5.086,-0.033 10.17,-1.38 15.214,-0.715c7.475,0.984 10.484,6.127 10.751,12.097c0.428,9.535 -3.713,16.342 -10.375,21.152l100.586,0l0,-332.521l-263.448,-0Z" style="fill:#112d3d;fill-rule:nonzero;"/></g><g><path d="M1507.02,186.732c0,33.425 -17.474,47.387 -48.912,47.387c-30.884,0 -48.426,-13.962 -48.426,-47.387l0,-49.95l-118.877,-0l-0,55.605c-0,111.234 81.851,148.261 167.303,148.261c85.453,-0 167.326,-37.027 167.326,-148.261l0,-55.605l-118.414,-0l0,49.95Z" style="fill:#e60e61;fill-rule:nonzero;"/><rect x="1507.02" y="0.031" width="118.414" height="96.786" style="fill:#112d3d;fill-rule:nonzero;"/><rect x="1290.8" y="0.031" width="118.877" height="96.786" style="fill:#112d3d;fill-rule:nonzero;"/><path d="M1675.93,332.429l118.877,0l0,-108.118c0,-19.066 -0.464,-39.104 -3.026,-60.71l121.992,168.828l100.387,0l-0,-195.647l-338.23,-0l-0,195.647Z" style="fill:#e60e61;fill-rule:nonzero;"/><rect x="1895.26" y="0.031" width="118.9" height="96.786" style="fill:#112d3d;fill-rule:nonzero;"/><path d="M1776.3,0.031l-100.364,0l-0,96.786l170.109,0l-69.745,-96.786Z" style="fill:#112d3d;fill-rule:nonzero;"/><path d="M1092.52,0.031l-167.347,0l-0,96.786l317.861,0c-14.426,-73.92 -82.426,-96.786 -150.514,-96.786Z" style="fill:#112d3d;fill-rule:nonzero;"/><path d="M1241.45,136.782l-316.27,-0l-0,195.647l118.943,0l0,-106.572l27.792,-0l74.141,106.572l130.786,0l-92.677,-125.615c27.13,-13.565 48.404,-35.9 57.285,-70.032Z" style="fill:#e60e61;fill-rule:nonzero;"/></g></g></svg>